
    <svg data-logo="logo" xmlns="http://www.w3.org/2000/svg" viewBox="0 0 217.3199920654297 42.525">
        <g id="logogram" transform="
    translate(0, 0)
    rotate(0 0 0)
    
"></g>
        <g id="logotype" transform="translate(-1.9600000000000002, 0)"><path fill="#111111" d="M6.58 34L1.96 34L1.96 8.83L22.26 8.83Q23.59 8.83 24.71 9.50Q25.83 10.16 26.50 11.27Q27.16 12.37 27.16 13.70L27.16 13.70L27.16 20.49Q27.16 21.82 26.50 22.94Q25.83 24.06 24.71 24.71Q23.59 25.35 22.26 25.35L22.26 25.35L6.58 25.39L6.58 34ZM7.00 20.70L7.00 20.70L22.05 20.70Q22.23 20.70 22.37 20.59Q22.51 20.49 22.51 20.31L22.51 20.31L22.51 13.87Q22.51 13.70 22.37 13.58Q22.23 13.45 22.05 13.45L22.05 13.45L7.00 13.45Q6.83 13.45 6.70 13.58Q6.58 13.70 6.58 13.87L6.58 13.87L6.58 20.31Q6.58 20.49 6.70 20.59Q6.83 20.70 7.00 20.70ZM34.30 34L34.30 34Q32.97 34 31.89 33.34Q30.80 32.67 30.14 31.59Q29.47 30.50 29.47 29.17L29.47 29.17L29.47 18.53Q29.47 17.20 30.14 16.11Q30.80 15.03 31.89 14.36Q32.97 13.70 34.30 13.70L34.30 13.70L45.26 13.70Q46.59 13.70 47.69 14.36Q48.79 15.03 49.44 16.11Q50.09 17.20 50.09 18.53L50.09 18.53L50.09 26.16L34.06 26.16L34.06 28.99Q34.06 29.17 34.18 29.29Q34.30 29.41 34.48 29.41L34.48 29.41L50.09 29.41L50.09 34L34.30 34ZM34.06 18.70L34.06 22.03L45.50 22.03L45.50 18.70Q45.50 18.53 45.38 18.41Q45.26 18.28 45.08 18.28L45.08 18.28L34.48 18.28Q34.30 18.28 34.18 18.41Q34.06 18.53 34.06 18.70L34.06 18.70ZM58.38 34L53.80 34L53.80 34L53.80 13.70L69.58 13.70Q70.91 13.70 72.01 14.36Q73.12 15.03 73.76 16.11Q74.41 17.20 74.41 18.53L74.41 18.53L74.41 34L69.83 34L69.83 18.70Q69.83 18.53 69.70 18.41Q69.58 18.28 69.41 18.28L69.41 18.28L58.80 18.28Q58.63 18.28 58.50 18.41Q58.38 18.53 58.38 18.70L58.38 18.70L58.38 34ZM82.74 34L78.16 34L78.16 34L78.16 13.70L93.94 13.70Q95.27 13.70 96.37 14.36Q97.47 15.03 98.12 16.11Q98.77 17.20 98.77 18.53L98.77 18.53L98.77 34L94.19 34L94.19 18.70Q94.19 18.53 94.06 18.41Q93.94 18.28 93.77 18.28L93.77 18.28L83.16 18.28Q82.98 18.28 82.86 18.41Q82.74 18.53 82.74 18.70L82.74 18.70L82.74 34ZM117.92 41.52L105.49 41.52L105.49 41.52L105.49 36.91L117.70 36.91Q117.88 36.91 118.00 36.78Q118.13 36.66 118.13 36.48L118.13 36.48L118.13 34L106.92 34Q105.63 34 104.53 33.34Q103.42 32.67 102.76 31.59Q102.09 30.50 102.09 29.17L102.09 29.17L102.09 13.77L106.68 13.77L106.68 28.99Q106.68 29.17 106.80 29.29Q106.92 29.41 107.10 29.41L107.10 29.41L117.70 29.41Q117.88 29.41 118.00 29.29Q118.13 29.17 118.13 28.99L118.13 28.99L118.13 13.77L122.71 13.77L122.71 36.70Q122.71 38.02 122.08 39.13Q121.45 40.23 120.35 40.88Q119.25 41.52 117.92 41.52L117.92 41.52ZM138.63 34L135.00 34L135.00 34L125.82 8.80L130.72 8.80L136.81 25.42L142.91 8.80L147.42 8.80L153.51 25.42L159.56 8.80L164.50 8.80L155.33 34L151.69 34L145.14 16.15L138.63 34ZM171.19 34L166.60 34L166.60 34L166.60 13.70L171.19 13.70L171.19 34ZM171.19 11.67L166.60 11.67L166.60 11.67L166.60 7.05L171.19 7.05L171.19 11.67ZM180.04 34L180.04 34Q178.71 34 177.63 33.34Q176.54 32.67 175.88 31.59Q175.21 30.50 175.21 29.17L175.21 29.17L175.21 28.40L179.80 28.40L179.80 28.99Q179.80 29.17 179.92 29.29Q180.04 29.41 180.22 29.41L180.22 29.41L190.82 29.41Q191.00 29.41 191.12 29.29Q191.24 29.17 191.24 28.99L191.24 28.99L191.24 26.58Q191.24 26.41 191.12 26.28Q191.00 26.16 190.82 26.16L190.82 26.16L180.04 26.16Q178.71 26.16 177.63 25.49Q176.54 24.83 175.88 23.74Q175.21 22.66 175.21 21.33L175.21 21.33L175.21 18.53Q175.21 17.20 175.88 16.11Q176.54 15.03 177.63 14.36Q178.71 13.70 180.04 13.70L180.04 13.70L191.00 13.70Q192.36 13.70 193.44 14.36Q194.53 15.03 195.19 16.11Q195.86 17.20 195.86 18.53L195.86 18.53L195.86 19.30L191.24 19.30L191.24 18.70Q191.24 18.53 191.12 18.41Q191.00 18.28 190.82 18.28L190.82 18.28L180.22 18.28Q180.04 18.28 179.92 18.41Q179.80 18.53 179.80 18.70L179.80 18.70L179.80 21.12Q179.80 21.29 179.92 21.42Q180.04 21.54 180.22 21.54L180.22 21.54L191.00 21.54Q192.36 21.54 193.44 22.20Q194.53 22.87 195.19 23.95Q195.86 25.04 195.86 26.37L195.86 26.37L195.86 29.17Q195.86 30.50 195.19 31.59Q194.53 32.67 193.44 33.34Q192.36 34 191.00 34L191.00 34L180.04 34ZM203.49 34L203.49 34Q202.16 34 201.07 33.34Q199.99 32.67 199.32 31.59Q198.66 30.50 198.66 29.17L198.66 29.17L198.66 18.53Q198.66 17.20 199.32 16.11Q199.99 15.03 201.07 14.36Q202.16 13.70 203.49 13.70L203.49 13.70L214.44 13.70Q215.78 13.70 216.88 14.36Q217.98 15.03 218.63 16.11Q219.28 17.20 219.28 18.53L219.28 18.53L219.28 26.16L203.25 26.16L203.25 28.99Q203.25 29.17 203.37 29.29Q203.49 29.41 203.66 29.41L203.66 29.41L219.28 29.41L219.28 34L203.49 34ZM203.25 18.70L203.25 22.03L214.69 22.03L214.69 18.70Q214.69 18.53 214.57 18.41Q214.44 18.28 214.27 18.28L214.27 18.28L203.66 18.28Q203.49 18.28 203.37 18.41Q203.25 18.53 203.25 18.70L203.25 18.70Z"/></g>
        
    </svg>
    